<?xml version="1.0" encoding="utf-8"?>
<!-- Generator: Adobe Illustrator 17.0.0, SVG Export Plug-In . SVG Version: 6.00 Build 0)  -->
<!DOCTYPE svg PUBLIC "-//W3C//DTD SVG 1.1//EN" "http://www.w3.org/Graphics/SVG/1.1/DTD/svg11.dtd">
<svg version="1.1" id="Layer_1" xmlns="http://www.w3.org/2000/svg" xmlns:xlink="http://www.w3.org/1999/xlink" x="0px" y="0px"
	 width="100px" height="100px" viewBox="7150 7150 100 100" enable-background="new 7150 7150 100 100" xml:space="preserve">
<g>
	<g>
		<path fill="#FFFFFF" d="M7172.832,7211.138c0.401-0.084,1.031-0.146,1.672-0.146c0.916,0,1.504,0.156,1.945,0.514
			c0.369,0.273,0.588,0.695,0.588,1.252c0,0.684-0.451,1.282-1.197,1.557v0.02c0.673,0.168,1.461,0.727,1.461,1.777
			c0,0.609-0.241,1.072-0.6,1.419c-0.492,0.452-1.293,0.663-2.448,0.663c-0.63,0-1.114-0.043-1.421-0.084V7211.138
			L7172.832,7211.138z M7173.748,7214.039h0.831c0.967,0,1.534-0.505,1.534-1.188c0-0.83-0.63-1.156-1.557-1.156
			c-0.419,0-0.662,0.031-0.81,0.063L7173.748,7214.039L7173.748,7214.039z M7173.748,7217.435c0.18,0.031,0.442,0.043,0.768,0.043
			c0.945,0,1.818-0.348,1.818-1.378c0-0.968-0.831-1.366-1.83-1.366h-0.756V7217.435z"/>
		<path fill="#FFFFFF" d="M7181.15,7211.043v4.194c0,1.588,0.705,2.261,1.651,2.261c1.05,0,1.723-0.694,1.723-2.261v-4.194h0.927
			v4.132c0,2.176-1.146,3.07-2.682,3.07c-1.451,0-2.543-0.832-2.543-3.029v-4.173H7181.15z"/>
		<path fill="#FFFFFF" d="M7188.741,7211.043h0.914v6.317h3.027v0.768h-3.941V7211.043z"/>
		<path fill="#FFFFFF" d="M7195.407,7211.043h0.914v6.317h3.028v0.768h-3.942V7211.043z"/>
		<path fill="#FFFFFF" d="M7201.947,7217.015c0.409,0.252,1.01,0.463,1.641,0.463c0.937,0,1.48-0.494,1.48-1.209
			c0-0.662-0.377-1.041-1.333-1.409c-1.158-0.411-1.873-1.009-1.873-2.009c0-1.104,0.916-1.924,2.292-1.924
			c0.727,0,1.251,0.168,1.566,0.348l-0.251,0.746c-0.233-0.126-0.705-0.336-1.347-0.336c-0.969,0-1.336,0.578-1.336,1.062
			c0,0.662,0.431,0.989,1.409,1.366c1.197,0.463,1.809,1.041,1.809,2.082c0,1.094-0.81,2.039-2.48,2.039
			c-0.684,0-1.432-0.199-1.809-0.451L7201.947,7217.015z"/>
		<path fill="#FFFFFF" d="M7212.628,7214.807h-2.755v2.554h3.069v0.768h-3.982v-7.085h3.826v0.767h-2.913v2.24h2.755V7214.807z"/>
		<path fill="#FFFFFF" d="M7217.442,7218.128v-3.006l-2.238-4.079h1.042l0.999,1.956c0.271,0.535,0.481,0.967,0.703,1.461h0.021
			c0.2-0.463,0.441-0.926,0.715-1.461l1.021-1.956h1.042l-2.375,4.069v3.016H7217.442z"/>
		<path fill="#FFFFFF" d="M7226.853,7214.807h-2.754v2.554h3.069v0.768h-3.983v-7.085h3.826v0.767h-2.912v2.24h2.754V7214.807z"/>
	</g>
	<path fill="#FFFFFF" d="M7199.797,7172.989c-8.47,0-15.333,6.865-15.333,15.332c0,8.469,6.863,15.334,15.333,15.334
		c8.468,0,15.333-6.865,15.333-15.334C7215.13,7179.854,7208.265,7172.989,7199.797,7172.989z M7199.797,7197.813
		c-5.242,0-9.492-4.25-9.492-9.492s4.25-9.492,9.492-9.492c5.241,0,9.491,4.25,9.491,9.492S7205.037,7197.813,7199.797,7197.813z"/>
	<circle fill="#FFFFFF" cx="7199.798" cy="7188.321" r="2.191"/>
</g>
</svg>
