<?xml version="1.0" encoding="utf-8"?>
<!-- Generator: Adobe Illustrator 17.0.0, SVG Export Plug-In . SVG Version: 6.00 Build 0)  -->
<!DOCTYPE svg PUBLIC "-//W3C//DTD SVG 1.1//EN" "http://www.w3.org/Graphics/SVG/1.1/DTD/svg11.dtd">
<svg version="1.1" id="Layer_1" xmlns="http://www.w3.org/2000/svg" xmlns:xlink="http://www.w3.org/1999/xlink" x="0px" y="0px"
	 width="100px" height="100px" viewBox="7150 7150 100 100" enable-background="new 7150 7150 100 100" xml:space="preserve">
<g>
	<g>
		<path fill="#FFFFFF" d="M7167.309,7204.617c1.104,0,1.871-0.738,2.302-2.217l1.594,0.803c-0.344,1.125-0.847,1.961-1.51,2.51
			c-0.664,0.549-1.459,0.823-2.386,0.823c-1.406,0-2.492-0.53-3.26-1.593c-0.768-1.061-1.151-2.545-1.151-4.453
			c0-1.914,0.371-3.383,1.111-4.408c0.74-1.026,1.813-1.539,3.22-1.539c1.025,0,1.861,0.274,2.506,0.822
			c0.646,0.55,1.098,1.355,1.358,2.42l-1.613,0.588c-0.136-0.585-0.404-1.05-0.803-1.395c-0.399-0.344-0.87-0.517-1.412-0.517
			c-0.827,0-1.455,0.342-1.882,1.025c-0.428,0.684-0.642,1.685-0.642,3.003c0,1.34,0.22,2.362,0.661,3.068
			S7166.477,7204.617,7167.309,7204.617z"/>
		<path fill="#FFFFFF" d="M7180.391,7206.371v-4.996h-3.809v4.996h-1.83v-11.654h1.83v4.64h3.809v-4.64h1.83v11.654H7180.391z"/>
		<path fill="#FFFFFF" d="M7186.277,7206.371v-11.654h1.83v11.654H7186.277z"/>
		<path fill="#FFFFFF" d="M7199.348,7198.405c0,0.75-0.128,1.42-0.385,2.011c-0.256,0.59-0.624,1.046-1.101,1.368
			c-0.478,0.322-1.045,0.484-1.703,0.484h-2.172v4.103h-1.83v-11.654h3.927c1.046,0,1.852,0.321,2.417,0.964
			C7199.065,7196.322,7199.348,7197.231,7199.348,7198.405z M7197.505,7198.447c0-1.225-0.542-1.837-1.625-1.837h-1.893v3.78h1.942
			c0.504,0,0.893-0.167,1.166-0.5C7197.368,7199.557,7197.505,7199.075,7197.505,7198.447z"/>
		<path fill="#FFFFFF" d="M7210.171,7198.405c0,0.75-0.128,1.42-0.384,2.011c-0.257,0.59-0.625,1.046-1.101,1.368
			c-0.478,0.322-1.045,0.484-1.703,0.484h-2.171v4.103h-1.83v-11.654h3.927c1.046,0,1.852,0.321,2.416,0.964
			C7209.889,7196.322,7210.171,7197.231,7210.171,7198.405z M7208.329,7198.447c0-1.225-0.542-1.837-1.625-1.837h-1.893v3.78h1.942
			c0.504,0,0.894-0.167,1.166-0.5C7208.192,7199.557,7208.329,7199.075,7208.329,7198.447z"/>
		<path fill="#FFFFFF" d="M7218.111,7201.59v4.781h-1.824v-4.781l-3.114-6.873h1.917l2.097,4.93l2.122-4.93h1.917L7218.111,7201.59z
			"/>
		<path fill="#FFFFFF" d="M7225.976,7198.943h-1.358l-0.161-4.227h1.687L7225.976,7198.943z"/>
		<path fill="#FFFFFF" d="M7237.129,7203.013c0,1.142-0.318,2.014-0.953,2.618c-0.635,0.604-1.566,0.905-2.795,0.905
			c-1.121,0-1.999-0.265-2.636-0.794s-1.047-1.332-1.229-2.407l1.768-0.389c0.12,0.617,0.354,1.065,0.701,1.344
			c0.348,0.279,0.829,0.418,1.445,0.418c1.278,0,1.917-0.519,1.917-1.555c0-0.331-0.073-0.604-0.22-0.819
			c-0.147-0.215-0.354-0.395-0.62-0.537c-0.267-0.144-0.779-0.316-1.536-0.521c-0.653-0.204-1.108-0.368-1.364-0.492
			c-0.257-0.123-0.488-0.27-0.696-0.438c-0.206-0.168-0.382-0.37-0.526-0.607c-0.145-0.237-0.258-0.516-0.338-0.836
			c-0.081-0.319-0.121-0.687-0.121-1.1c0-1.053,0.297-1.859,0.89-2.42c0.594-0.559,1.457-0.839,2.59-0.839
			c1.084,0,1.897,0.226,2.441,0.678c0.544,0.453,0.895,1.2,1.052,2.242l-1.774,0.322c-0.091-0.502-0.276-0.879-0.555-1.133
			s-0.68-0.381-1.2-0.381c-1.109,0-1.663,0.463-1.663,1.39c0,0.304,0.06,0.552,0.177,0.744c0.118,0.193,0.293,0.357,0.524,0.492
			c0.231,0.136,0.701,0.306,1.408,0.509c0.839,0.237,1.44,0.457,1.802,0.658s0.649,0.436,0.859,0.703
			c0.211,0.268,0.373,0.587,0.484,0.959C7237.073,7202.099,7237.129,7202.527,7237.129,7203.013z"/>
	</g>
	<g>
		<path fill="#FFFFFF" d="M7178.482,7188.701v-2.813h0.589v2.813H7178.482z"/>
		<path fill="#FFFFFF" d="M7181.819,7188.278c0.355,0,0.602-0.179,0.741-0.535l0.513,0.193c-0.11,0.271-0.272,0.474-0.486,0.606
			c-0.214,0.132-0.47,0.198-0.768,0.198c-0.453,0-0.803-0.128-1.049-0.385c-0.247-0.256-0.37-0.614-0.37-1.075
			s0.119-0.816,0.357-1.063c0.239-0.248,0.583-0.372,1.037-0.372c0.33,0,0.599,0.066,0.806,0.199s0.354,0.327,0.437,0.584
			l-0.519,0.142c-0.044-0.141-0.13-0.253-0.259-0.336c-0.128-0.084-0.28-0.125-0.454-0.125c-0.266,0-0.468,0.082-0.606,0.247
			c-0.138,0.166-0.207,0.406-0.207,0.725c0,0.324,0.071,0.57,0.212,0.741C7181.347,7188.193,7181.551,7188.278,7181.819,7188.278z"
			/>
		<path fill="#FFFFFF" d="M7184.345,7188.701v-2.813h2.212v0.455h-1.624v0.706h1.502v0.456h-1.502v0.74h1.706v0.455
			L7184.345,7188.701L7184.345,7188.701z"/>
		<path fill="#FFFFFF" d="M7191.297,7188.278c0.355,0,0.602-0.179,0.741-0.535l0.513,0.193c-0.111,0.271-0.272,0.474-0.486,0.606
			c-0.214,0.132-0.47,0.198-0.768,0.198c-0.453,0-0.803-0.128-1.049-0.385c-0.247-0.256-0.371-0.614-0.371-1.075
			s0.119-0.816,0.357-1.063c0.238-0.248,0.583-0.372,1.037-0.372c0.33,0,0.599,0.066,0.806,0.199s0.354,0.327,0.437,0.584
			l-0.519,0.142c-0.044-0.141-0.13-0.253-0.258-0.336c-0.128-0.084-0.28-0.125-0.455-0.125c-0.266,0-0.468,0.082-0.605,0.247
			c-0.138,0.166-0.207,0.406-0.207,0.725c0,0.324,0.071,0.57,0.213,0.741S7191.029,7188.278,7191.297,7188.278z"/>
		<path fill="#FFFFFF" d="M7195.755,7188.701l-0.653-1.068h-0.691v1.068h-0.589v-2.813h1.406c0.335,0,0.594,0.071,0.776,0.216
			c0.183,0.145,0.273,0.353,0.273,0.622c0,0.197-0.056,0.367-0.167,0.511c-0.112,0.143-0.263,0.237-0.454,0.282l0.761,1.182
			L7195.755,7188.701L7195.755,7188.701z M7195.686,7186.751c0-0.271-0.173-0.405-0.519-0.405h-0.755v0.83h0.771
			c0.166,0,0.291-0.037,0.375-0.111S7195.686,7186.885,7195.686,7186.751z"/>
		<path fill="#FFFFFF" d="M7197.663,7188.701v-2.813h2.212v0.455h-1.624v0.706h1.501v0.456h-1.501v0.74h1.706v0.455
			L7197.663,7188.701L7197.663,7188.701z"/>
		<path fill="#FFFFFF" d="M7203.267,7188.701l-0.25-0.719h-1.072l-0.25,0.719h-0.589l1.026-2.813h0.695l1.022,2.813H7203.267z
			 M7202.479,7186.321l-0.012,0.044c-0.013,0.048-0.029,0.103-0.047,0.164c-0.019,0.062-0.133,0.397-0.344,1.01h0.809l-0.277-0.809
			l-0.086-0.271L7202.479,7186.321z"/>
		<path fill="#FFFFFF" d="M7207.453,7188.701v-1.705c0-0.038,0-0.077,0.001-0.115c0-0.039,0.007-0.205,0.02-0.498
			c-0.095,0.358-0.165,0.607-0.21,0.749l-0.507,1.569h-0.419l-0.507-1.569l-0.214-0.749c0.016,0.31,0.024,0.514,0.024,0.613v1.705
			h-0.523v-2.813h0.789l0.503,1.572l0.044,0.152l0.096,0.377l0.126-0.451l0.517-1.65h0.785v2.813H7207.453z"/>
		<path fill="#FFFFFF" d="M7213.928,7187.898c0,0.256-0.096,0.453-0.288,0.593s-0.458,0.21-0.799,0.21h-1.407v-2.813h1.288
			c0.343,0,0.603,0.059,0.779,0.178c0.177,0.12,0.265,0.296,0.265,0.528c0,0.16-0.044,0.295-0.133,0.405
			c-0.088,0.109-0.223,0.184-0.404,0.222c0.228,0.027,0.401,0.099,0.521,0.215S7213.928,7187.707,7213.928,7187.898z
			 M7213.173,7186.675c0-0.126-0.04-0.217-0.121-0.27c-0.081-0.054-0.2-0.08-0.359-0.08h-0.671v0.697h0.675
			c0.167,0,0.287-0.029,0.362-0.087C7213.135,7186.877,7213.173,7186.791,7213.173,7186.675z M7213.336,7187.853
			c0-0.264-0.189-0.396-0.567-0.396h-0.747v0.807h0.769c0.189,0,0.327-0.034,0.415-0.103
			C7213.293,7188.092,7213.336,7187.99,7213.336,7187.853z"/>
		<path fill="#FFFFFF" d="M7217.263,7188.701l-0.25-0.719h-1.072l-0.25,0.719h-0.589l1.026-2.813h0.695l1.022,2.813H7217.263z
			 M7216.476,7186.321l-0.012,0.044c-0.013,0.048-0.029,0.103-0.047,0.164c-0.019,0.062-0.133,0.397-0.344,1.01h0.809l-0.277-0.809
			l-0.086-0.271L7216.476,7186.321z"/>
		<path fill="#FFFFFF" d="M7221.047,7188.701l-0.653-1.068h-0.691v1.068h-0.589v-2.813h1.405c0.336,0,0.595,0.071,0.777,0.216
			c0.183,0.145,0.274,0.353,0.274,0.622c0,0.197-0.057,0.367-0.168,0.511c-0.112,0.143-0.263,0.237-0.454,0.282l0.761,1.182
			L7221.047,7188.701L7221.047,7188.701z M7220.977,7186.751c0-0.271-0.173-0.405-0.519-0.405h-0.755v0.83h0.771
			c0.165,0,0.29-0.037,0.375-0.111S7220.977,7186.885,7220.977,7186.751z"/>
	</g>
	<g>
		<polygon fill="#FFFFFF" points="7151.313,7214.154 7151.313,7186.876 7173.715,7186.876 7173.715,7187.868 7152.308,7187.868 
			7152.308,7213.16 7247.692,7213.16 7247.692,7187.868 7226.285,7187.868 7226.285,7186.876 7248.687,7186.876 7248.687,7214.154 
					"/>
	</g>
</g>
</svg>
