<?xml version="1.0" encoding="utf-8"?>
<!-- Generator: Adobe Illustrator 17.0.0, SVG Export Plug-In . SVG Version: 6.00 Build 0)  -->
<!DOCTYPE svg PUBLIC "-//W3C//DTD SVG 1.1//EN" "http://www.w3.org/Graphics/SVG/1.1/DTD/svg11.dtd">
<svg version="1.1" id="Layer_1" xmlns="http://www.w3.org/2000/svg" xmlns:xlink="http://www.w3.org/1999/xlink" x="0px" y="0px"
	 width="100px" height="100px" viewBox="7150 7150 100 100" enable-background="new 7150 7150 100 100" xml:space="preserve">
<g>
	<g>
		<g>
			<path fill="#FFFFFF" d="M7163.375,7202.205c-0.547,0.197-1.625,0.52-2.902,0.52c-1.428,0-2.605-0.365-3.529-1.248
				c-0.813-0.785-1.318-2.045-1.318-3.518c0.016-2.814,1.949-4.875,5.115-4.875c1.094,0,1.949,0.238,2.354,0.434l-0.293,0.996
				c-0.506-0.225-1.135-0.406-2.088-0.406c-2.299,0-3.799,1.428-3.799,3.796c0,2.397,1.443,3.812,3.645,3.812
				c0.799,0,1.346-0.111,1.625-0.252v-2.816h-1.918v-0.98h3.109v4.539H7163.375z"/>
			<path fill="#FFFFFF" d="M7173.314,7197.806c0,3.251-1.977,4.974-4.387,4.974c-2.494,0-4.244-1.933-4.244-4.791
				c0-2.999,1.861-4.961,4.385-4.961C7171.646,7193.027,7173.314,7195.004,7173.314,7197.806z M7165.987,7197.959
				c0,2.02,1.092,3.826,3.012,3.826c1.934,0,3.027-1.779,3.027-3.924c0-1.877-0.98-3.839-3.014-3.839
				C7166.993,7194.022,7165.987,7195.887,7165.987,7197.959z"/>
			<path fill="#FFFFFF" d="M7174.901,7193.182h1.221v8.422h4.035v1.022h-5.256L7174.901,7193.182L7174.901,7193.182z"/>
			<path fill="#FFFFFF" d="M7181.518,7193.309c0.744-0.113,1.625-0.197,2.592-0.197c1.754,0,3,0.406,3.826,1.178
				c0.842,0.771,1.332,1.863,1.332,3.391c0,1.541-0.477,2.803-1.359,3.672c-0.885,0.883-2.342,1.358-4.176,1.358
				c-0.869,0-1.598-0.042-2.215-0.112L7181.518,7193.309L7181.518,7193.309z M7182.739,7201.659
				c0.307,0.056,0.756,0.069,1.232,0.069c2.605,0,4.021-1.457,4.021-4.007c0.014-2.228-1.248-3.644-3.826-3.644
				c-0.629,0-1.105,0.057-1.428,0.127v7.454H7182.739z"/>
			<path fill="#FFFFFF" d="M7195.744,7198.198h-3.67v3.405h4.092v1.022h-5.313v-9.444h5.102v1.023h-3.881v2.984h3.67V7198.198z"/>
		</g>
	</g>
	<path fill="#FFFFFF" d="M7151.811,7188v20.443h96.379V7188H7151.811z M7197.498,7205.943h-43.188V7190.5h43.188V7205.943z
		 M7211.564,7202.205c-0.547,0.197-1.625,0.52-2.9,0.52c-1.43,0-2.605-0.365-3.531-1.248c-0.813-0.785-1.316-2.045-1.316-3.518
		c0.014-2.814,1.947-4.875,5.113-4.875c1.094,0,1.947,0.238,2.355,0.434l-0.295,0.996c-0.504-0.225-1.135-0.406-2.09-0.406
		c-2.295,0-3.795,1.428-3.795,3.796c0,2.397,1.443,3.812,3.643,3.812c0.799,0,1.346-0.111,1.625-0.252v-2.816h-1.92v-0.98h3.111
		L7211.564,7202.205L7211.564,7202.205z M7217.118,7202.78c-2.494,0-4.246-1.933-4.246-4.791c0-2.999,1.865-4.961,4.385-4.961
		c2.578,0,4.246,1.977,4.246,4.778C7221.501,7201.057,7219.528,7202.78,7217.118,7202.78z M7228.344,7202.626h-5.252v-9.444h1.217
		v8.422h4.035V7202.626z M7236.098,7201.352c-0.883,0.883-2.34,1.358-4.176,1.358c-0.869,0-1.598-0.042-2.213-0.112v-9.289
		c0.74-0.113,1.625-0.197,2.592-0.197c1.75,0,2.996,0.406,3.824,1.178c0.84,0.771,1.33,1.863,1.33,3.391
		C7237.455,7199.221,7236.98,7200.482,7236.098,7201.352z M7244.354,7202.626h-5.309v-9.444h5.1v1.023h-3.881v2.984h3.672v1.009
		h-3.672v3.405h4.09V7202.626z M7232.355,7194.078c-0.631,0-1.107,0.057-1.43,0.127v7.454c0.309,0.056,0.758,0.069,1.234,0.069
		c2.607,0,4.021-1.457,4.021-4.007C7236.196,7195.494,7234.936,7194.078,7232.355,7194.078z M7217.201,7194.022
		c-2.018,0-3.027,1.864-3.027,3.937c0,2.02,1.094,3.826,3.014,3.826c1.934,0,3.025-1.779,3.025-3.924
		C7220.213,7195.984,7219.233,7194.022,7217.201,7194.022z"/>
</g>
</svg>
