<?xml version="1.0" encoding="utf-8"?>
<!-- Generator: Adobe Illustrator 17.0.0, SVG Export Plug-In . SVG Version: 6.00 Build 0)  -->
<!DOCTYPE svg PUBLIC "-//W3C//DTD SVG 1.1//EN" "http://www.w3.org/Graphics/SVG/1.1/DTD/svg11.dtd">
<svg version="1.1" id="Layer_1" xmlns="http://www.w3.org/2000/svg" xmlns:xlink="http://www.w3.org/1999/xlink" x="0px" y="0px"
	 width="20px" height="20px" viewBox="7190 7190 20 20" enable-background="new 7190 7190 20 20" xml:space="preserve">
<path fill="#FFFFFF" d="M7208.603,7198.232c-0.115-0.564-0.287-1.119-0.512-1.65c-0.221-0.521-0.492-1.023-0.811-1.492
	c-0.313-0.465-0.674-0.9-1.07-1.297c-0.398-0.398-0.834-0.76-1.299-1.072c-0.469-0.318-0.971-0.592-1.492-0.813
	c-0.529-0.223-1.086-0.395-1.65-0.51c-0.578-0.119-1.174-0.18-1.768-0.18c-0.596,0-1.189,0.061-1.77,0.18
	c-0.563,0.115-1.119,0.287-1.648,0.51c-0.521,0.221-1.023,0.494-1.492,0.813c-0.465,0.313-0.902,0.674-1.301,1.072
	c-0.395,0.396-0.756,0.832-1.07,1.297c-0.316,0.469-0.59,0.971-0.809,1.492c-0.225,0.531-0.398,1.086-0.514,1.65
	c-0.117,0.578-0.178,1.174-0.178,1.768c0,0.596,0.061,1.191,0.178,1.768c0.115,0.564,0.289,1.121,0.514,1.65
	c0.219,0.521,0.492,1.023,0.809,1.494c0.314,0.463,0.676,0.9,1.07,1.297c0.398,0.398,0.836,0.758,1.301,1.07
	c0.469,0.318,0.971,0.592,1.492,0.813c0.529,0.223,1.086,0.395,1.648,0.51c0.58,0.121,1.174,0.18,1.77,0.18
	c0.594,0,1.189-0.059,1.768-0.18c0.564-0.115,1.121-0.287,1.65-0.51c0.521-0.221,1.023-0.494,1.492-0.813
	c0.465-0.313,0.9-0.672,1.299-1.07c0.396-0.396,0.758-0.834,1.07-1.297c0.318-0.471,0.59-0.973,0.811-1.494
	c0.225-0.529,0.396-1.086,0.512-1.65c0.119-0.576,0.178-1.172,0.178-1.768C7208.781,7199.406,7208.722,7198.811,7208.603,7198.232z
	 M7207.498,7199.924c-0.109-0.021-2.646-0.568-5.223-0.244c-0.053-0.129-0.107-0.258-0.162-0.387
	c-0.156-0.367-0.324-0.73-0.498-1.088c2.961-1.209,4.162-2.947,4.178-2.969C7206.843,7196.514,7207.48,7198.146,7207.498,7199.924z
	 M7204.955,7194.373c-0.02,0.029-1.088,1.654-3.918,2.715c-1.281-2.355-2.689-4.227-2.803-4.375
	c0.568-0.137,1.158-0.211,1.768-0.211C7201.9,7192.502,7203.632,7193.209,7204.955,7194.373z M7198.205,7192.719v0.002
	c0,0-0.01,0.002-0.023,0.004C7198.181,7192.725,7198.197,7192.723,7198.205,7192.719z M7196.802,7193.219
	c0.098,0.133,1.486,2.014,2.783,4.32c-3.6,0.957-6.725,0.918-6.924,0.916C7193.15,7196.133,7194.711,7194.207,7196.802,7193.219z
	 M7192.502,7200c0-0.08,0.004-0.158,0.006-0.236c0.133,0.002,3.84,0.086,7.699-1.068c0.215,0.42,0.422,0.848,0.609,1.275
	c-0.1,0.025-0.197,0.057-0.297,0.088c-4.047,1.307-6.098,4.949-6.098,4.949l0.002,0.004
	C7193.23,7203.682,7192.502,7201.926,7192.502,7200z M7200.002,7207.5c-1.814,0-3.48-0.646-4.777-1.719
	c0.098,0.08,0.168,0.131,0.168,0.131s1.438-3.135,5.885-4.686c0.018-0.006,0.033-0.012,0.049-0.014
	c1.057,2.74,1.492,5.037,1.602,5.693C7202.029,7207.287,7201.041,7207.5,7200.002,7207.5z M7204.191,7206.219
	c-0.076-0.451-0.477-2.652-1.459-5.355c2.42-0.387,4.518,0.277,4.674,0.328C7207.072,7203.281,7205.877,7205.084,7204.191,7206.219z
	"/>
</svg>
