<?xml version="1.0" encoding="utf-8"?>
<!-- Generator: Adobe Illustrator 17.0.0, SVG Export Plug-In . SVG Version: 6.00 Build 0)  -->
<!DOCTYPE svg PUBLIC "-//W3C//DTD SVG 1.1//EN" "http://www.w3.org/Graphics/SVG/1.1/DTD/svg11.dtd">
<svg version="1.1" id="Layer_1" xmlns="http://www.w3.org/2000/svg" xmlns:xlink="http://www.w3.org/1999/xlink" x="0px" y="0px"
	 width="20px" height="20px" viewBox="7190 7190 20 20" enable-background="new 7190 7190 20 20" xml:space="preserve">
<g>
	<path fill="#FFFFFF" d="M7209.631,7198.507h-2.668v-2.668c0-0.203-0.166-0.369-0.369-0.369h-0.76c-0.205,0-0.369,0.166-0.369,0.369
		v2.668h-2.668c-0.203,0-0.371,0.166-0.371,0.369v0.76c0,0.205,0.168,0.369,0.371,0.369h2.668v2.67c0,0.203,0.164,0.367,0.369,0.367
		h0.76c0.203,0,0.369-0.164,0.369-0.367v-2.67h2.668c0.203,0,0.369-0.164,0.369-0.369v-0.76
		C7210,7198.673,7209.834,7198.507,7209.631,7198.507z"/>
	<path fill="#FFFFFF" d="M7200.664,7200.847c-0.561-0.398-1.072-0.98-1.08-1.16c0-0.326,0.027-0.482,0.76-1.051
		c0.945-0.742,1.467-1.715,1.467-2.742c0-0.934-0.285-1.762-0.771-2.344h0.377c0.078,0,0.154-0.023,0.217-0.068l1.051-0.762
		c0.131-0.092,0.184-0.26,0.135-0.412c-0.051-0.152-0.191-0.256-0.352-0.256h-4.693c-0.514,0-1.035,0.09-1.549,0.268
		c-1.711,0.59-2.906,2.047-2.906,3.543c0,2.121,1.643,3.729,3.838,3.779c-0.045,0.168-0.064,0.332-0.064,0.494
		c0,0.328,0.082,0.637,0.252,0.936c-0.02,0-0.037,0-0.061,0c-2.092,0-3.982,1.027-4.697,2.557c-0.188,0.396-0.281,0.799-0.281,1.193
		c0,0.387,0.098,0.76,0.293,1.107c0.449,0.807,1.418,1.432,2.727,1.762c0.674,0.172,1.4,0.258,2.154,0.258
		c0.676,0,1.322-0.086,1.918-0.26c1.861-0.539,3.064-1.91,3.064-3.492C7202.461,7202.681,7201.973,7201.771,7200.664,7200.847z
		 M7194.736,7204.319c0-1.104,1.4-2.072,2.998-2.072h0.043c0.35,0.006,0.688,0.055,1.008,0.154c0.111,0.074,0.215,0.146,0.318,0.217
		c0.738,0.504,1.227,0.836,1.363,1.371c0.033,0.135,0.049,0.268,0.049,0.398c0,1.375-1.025,2.072-3.047,2.072
		C7195.936,7206.46,7194.736,7205.521,7194.736,7204.319z M7196.19,7193.89c0.25-0.283,0.576-0.434,0.945-0.434h0.041
		c1.037,0.029,2.029,1.188,2.213,2.576c0.102,0.779-0.072,1.512-0.463,1.959c-0.25,0.285-0.574,0.436-0.955,0.436l0,0h-0.018
		c-1.016-0.031-2.029-1.232-2.213-2.621C7195.639,7195.028,7195.803,7194.331,7196.19,7193.89z"/>
</g>
</svg>
