<?xml version="1.0" encoding="utf-8"?>
<!-- Generator: Adobe Illustrator 17.0.0, SVG Export Plug-In . SVG Version: 6.00 Build 0)  -->
<!DOCTYPE svg PUBLIC "-//W3C//DTD SVG 1.1//EN" "http://www.w3.org/Graphics/SVG/1.1/DTD/svg11.dtd">
<svg version="1.1" id="Layer_1" xmlns="http://www.w3.org/2000/svg" xmlns:xlink="http://www.w3.org/1999/xlink" x="0px" y="0px"
	 width="100px" height="100px" viewBox="7150 7150 100 100" enable-background="new 7150 7150 100 100" xml:space="preserve">
<g>
	<g>
		<g>
			<path fill="#FFFFFF" d="M7179.979,7207.387h1.08v7.455h3.572v0.904h-4.652V7207.387z"/>
			<path fill="#FFFFFF" d="M7189.394,7207.387v8.359h-1.08v-8.359H7189.394z"/>
			<path fill="#FFFFFF" d="M7193.76,7207.387h1.08v7.455h3.572v0.904h-4.652V7207.387z"/>
			<path fill="#FFFFFF" d="M7202.914,7215.746v-3.548l-2.641-4.812h1.229l1.178,2.307c0.322,0.633,0.57,1.141,0.832,1.723h0.023
				c0.236-0.543,0.521-1.09,0.844-1.723l1.203-2.307h1.229l-2.803,4.799v3.561H7202.914z"/>
			<path fill="#FFFFFF" d="M7211.771,7207.25c-0.285,1.041-0.818,2.369-1.166,2.939l-0.695,0.086
				c0.273-0.73,0.596-2.021,0.732-2.914L7211.771,7207.25z"/>
			<path fill="#FFFFFF" d="M7215.229,7214.432c0.484,0.297,1.191,0.546,1.936,0.546c1.104,0,1.75-0.583,1.75-1.427
				c0-0.781-0.445-1.228-1.576-1.662c-1.365-0.484-2.207-1.191-2.207-2.369c0-1.303,1.078-2.27,2.703-2.27
				c0.855,0,1.477,0.197,1.848,0.408l-0.297,0.881c-0.271-0.148-0.832-0.396-1.588-0.396c-1.143,0-1.574,0.683-1.574,1.252
				c0,0.783,0.508,1.168,1.662,1.613c1.414,0.545,2.133,1.229,2.133,2.456c0,1.29-0.955,2.407-2.928,2.407
				c-0.807,0-1.688-0.235-2.133-0.533L7215.229,7214.432z"/>
		</g>
	</g>
	<g>
		<g>
			<path fill="#FFFFFF" d="M7168.625,7221.563h4.502v0.904h-3.424v2.779h3.164v0.893h-3.164v3.783h-1.078V7221.563z"/>
			<path fill="#FFFFFF" d="M7177.144,7221.563h1.08v7.455h3.574v0.904h-4.654L7177.144,7221.563L7177.144,7221.563z"/>
			<path fill="#FFFFFF" d="M7192.142,7225.656c0,2.877-1.748,4.402-3.883,4.402c-2.209,0-3.76-1.711-3.76-4.242
				c0-2.654,1.65-4.391,3.885-4.391C7190.666,7221.426,7192.142,7223.174,7192.142,7225.656z M7185.654,7225.791
				c0,1.787,0.969,3.389,2.668,3.389c1.711,0,2.68-1.576,2.68-3.475c0-1.662-0.869-3.399-2.668-3.399
				C7186.546,7222.306,7185.654,7223.955,7185.654,7225.791z"/>
			<path fill="#FFFFFF" d="M7197.389,7229.922l-2.121-8.359h1.143l0.99,4.229c0.248,1.043,0.473,2.085,0.621,2.891h0.025
				c0.135-0.83,0.396-1.824,0.682-2.902l1.117-4.217h1.129l1.016,4.242c0.236,0.992,0.461,1.984,0.584,2.865h0.025
				c0.174-0.918,0.408-1.848,0.668-2.891l1.105-4.217h1.104l-2.369,8.359h-1.129l-1.055-4.354c-0.26-1.067-0.434-1.885-0.545-2.729
				h-0.025c-0.148,0.83-0.336,1.648-0.645,2.729l-1.191,4.354H7197.389z"/>
			<path fill="#FFFFFF" d="M7213.328,7226.003h-3.25v3.015h3.621v0.904h-4.701v-8.359h4.516v0.904h-3.436v2.643h3.25V7226.003z"/>
			<path fill="#FFFFFF" d="M7217.582,7221.674c0.545-0.111,1.326-0.174,2.072-0.174c1.152,0,1.896,0.211,2.418,0.682
				c0.422,0.373,0.658,0.943,0.658,1.588c0,1.104-0.695,1.836-1.574,2.133v0.037c0.643,0.225,1.027,0.82,1.227,1.688
				c0.271,1.165,0.471,1.972,0.645,2.294h-1.117c-0.137-0.234-0.322-0.955-0.559-1.996c-0.246-1.154-0.693-1.588-1.674-1.625h-1.018
				v3.621h-1.078L7217.582,7221.674L7217.582,7221.674z M7218.66,7225.48h1.104c1.154,0,1.887-0.631,1.887-1.586
				c0-1.08-0.781-1.551-1.922-1.563c-0.521,0-0.895,0.049-1.068,0.098v3.052H7218.66z"/>
			<path fill="#FFFFFF" d="M7226.585,7228.607c0.484,0.299,1.191,0.547,1.938,0.547c1.104,0,1.748-0.584,1.748-1.428
				c0-0.781-0.445-1.227-1.576-1.662c-1.363-0.483-2.207-1.191-2.207-2.369c0-1.303,1.078-2.27,2.703-2.27
				c0.855,0,1.477,0.197,1.848,0.408l-0.297,0.881c-0.271-0.148-0.832-0.396-1.588-0.396c-1.141,0-1.574,0.682-1.574,1.253
				c0,0.782,0.508,1.167,1.662,1.612c1.414,0.547,2.133,1.229,2.133,2.457c0,1.289-0.953,2.406-2.928,2.406
				c-0.807,0-1.686-0.236-2.133-0.533L7226.585,7228.607z"/>
		</g>
	</g>
	<path fill="#FFFFFF" d="M7210.908,7176.815c0-3.796-3.078-6.874-6.875-6.874c-1.768,0-3.363,0.687-4.582,1.784
		c-1.219-1.098-2.816-1.784-4.584-1.784c-3.797,0-6.875,3.078-6.875,6.874c0,1.769,0.688,3.364,1.785,4.583
		c-1.098,1.218-1.785,2.814-1.785,4.583c0,3.797,3.078,6.875,6.875,6.875c1.768,0,3.365-0.687,4.584-1.784
		c1.219,1.098,2.814,1.784,4.582,1.784c3.797,0,6.875-3.078,6.875-6.875c0-1.769-0.688-3.365-1.783-4.583
		C7210.221,7180.18,7210.908,7178.584,7210.908,7176.815z M7199.451,7188.273c-3.799,0-6.877-3.078-6.877-6.875
		s3.078-6.875,6.877-6.875c3.795,0,6.875,3.078,6.875,6.875S7203.246,7188.273,7199.451,7188.273z"/>
</g>
</svg>
