<?xml version="1.0" encoding="utf-8"?>
<!-- Generator: Adobe Illustrator 17.0.0, SVG Export Plug-In . SVG Version: 6.00 Build 0)  -->
<!DOCTYPE svg PUBLIC "-//W3C//DTD SVG 1.1//EN" "http://www.w3.org/Graphics/SVG/1.1/DTD/svg11.dtd">
<svg version="1.1" id="Layer_1" xmlns="http://www.w3.org/2000/svg" xmlns:xlink="http://www.w3.org/1999/xlink" x="0px" y="0px"
	 width="100px" height="100px" viewBox="7150 7150 100 100" enable-background="new 7150 7150 100 100" xml:space="preserve">
<g>
	<g>
		<path fill="#FFFFFF" d="M7161.11,7202.908c1.059,0.652,2.608,1.195,4.239,1.195c2.417,0,3.831-1.277,3.831-3.125
			c0-1.711-0.979-2.689-3.451-3.641c-2.988-1.06-4.836-2.607-4.836-5.189c0-2.852,2.363-4.972,5.922-4.972
			c1.875,0,3.234,0.435,4.048,0.897l-0.652,1.928c-0.597-0.326-1.82-0.869-3.478-0.869c-2.499,0-3.45,1.494-3.45,2.744
			c0,1.711,1.114,2.555,3.641,3.531c3.097,1.196,4.673,2.69,4.673,5.381c0,2.824-2.092,5.27-6.412,5.27
			c-1.766,0-3.695-0.516-4.673-1.168L7161.11,7202.908z"/>
		<path fill="#FFFFFF" d="M7175.262,7205.787l-4.646-18.311h2.5l2.174,9.264c0.543,2.281,1.032,4.564,1.358,6.33h0.054
			c0.299-1.82,0.87-3.994,1.495-6.357l2.445-9.236h2.472l2.228,9.291c0.516,2.174,1.005,4.348,1.277,6.275h0.054
			c0.38-2.01,0.896-4.047,1.467-6.33l2.418-9.236h2.418l-5.19,18.311h-2.472l-2.31-9.535c-0.57-2.338-0.951-4.131-1.195-5.979
			h-0.055c-0.326,1.82-0.733,3.613-1.413,5.979l-2.608,9.535H7175.262z"/>
		<path fill="#FFFFFF" d="M7202.181,7197.202h-7.118v6.603h7.933v1.982h-10.297v-18.311h9.89v1.982h-7.525v5.787h7.118v1.956
			H7202.181z"/>
		<path fill="#FFFFFF" d="M7212.99,7197.202h-7.119v6.603h7.934v1.982h-10.297v-18.311h9.89v1.982h-7.527v5.787h7.119
			L7212.99,7197.202L7212.99,7197.202z"/>
		<path fill="#FFFFFF" d="M7218.231,7189.486h-5.57v-2.01h13.558v2.01h-5.597v16.301h-2.391V7189.486z"/>
		<path fill="#FFFFFF" d="M7230.537,7205.787v-7.77l-5.787-10.541h2.689l2.581,5.053c0.707,1.385,1.25,2.5,1.821,3.776h0.054
			c0.517-1.196,1.141-2.392,1.849-3.776l2.634-5.053h2.69l-6.141,10.514v7.797H7230.537z"/>
	</g>
	<g>
		<path fill="#FFFFFF" d="M7154.394,7212.626c-0.196,0.098-0.588,0.197-1.09,0.197c-1.164,0-2.041-0.736-2.041-2.09
			c0-1.293,0.877-2.17,2.157-2.17c0.515,0,0.839,0.111,0.98,0.185l-0.128,0.435c-0.202-0.098-0.49-0.172-0.833-0.172
			c-0.968,0-1.612,0.619-1.612,1.704c0,1.011,0.583,1.66,1.587,1.66c0.325,0,0.656-0.067,0.871-0.171L7154.394,7212.626z"/>
		<path fill="#FFFFFF" d="M7164.483,7211.462l-0.429,1.299h-0.552l1.403-4.129h0.644l1.409,4.129h-0.57l-0.44-1.299H7164.483z
			 M7165.837,7211.046l-0.404-1.189c-0.092-0.27-0.153-0.514-0.214-0.754h-0.013c-0.062,0.246-0.129,0.497-0.208,0.748l-0.404,1.195
			H7165.837z"/>
		<path fill="#FFFFFF" d="M7176.295,7208.632h2.224v0.447h-1.691v1.372h1.563v0.44h-1.563v1.869h-0.533V7208.632z"/>
		<path fill="#FFFFFF" d="M7190.148,7210.826h-1.606v1.488h1.79v0.447h-2.323v-4.129h2.23v0.447h-1.697v1.305h1.606V7210.826z"/>
		<path fill="#FFFFFF" d="M7200.637,7209.085h-1.257v-0.453h3.057v0.453h-1.261v3.676h-0.539V7209.085z"/>
		<path fill="#FFFFFF" d="M7213.767,7210.826h-1.605v1.488h1.789v0.447h-2.321v-4.129h2.23v0.447h-1.697v1.305h1.605v0.441H7213.767
			z"/>
		<path fill="#FFFFFF" d="M7223.375,7208.687c0.27-0.055,0.655-0.086,1.022-0.086c0.57,0,0.938,0.104,1.195,0.337
			c0.208,0.185,0.324,0.466,0.324,0.784c0,0.545-0.343,0.906-0.778,1.055v0.018c0.319,0.111,0.508,0.404,0.607,0.834
			c0.135,0.576,0.232,0.975,0.318,1.133h-0.552c-0.067-0.116-0.159-0.471-0.275-0.986c-0.123-0.57-0.344-0.783-0.828-0.803h-0.501
			v1.789h-0.533L7223.375,7208.687L7223.375,7208.687z M7223.906,7210.568h0.545c0.569,0,0.931-0.313,0.931-0.785
			c0-0.532-0.386-0.765-0.95-0.771c-0.257,0-0.441,0.025-0.527,0.049L7223.906,7210.568L7223.906,7210.568z"/>
		<path fill="#FFFFFF" d="M7235.934,7208.632v4.129h-0.533v-4.129H7235.934z"/>
		<path fill="#FFFFFF" d="M7246.261,7211.462l-0.43,1.299h-0.551l1.403-4.129h0.644l1.41,4.129h-0.571l-0.44-1.299H7246.261z
			 M7247.615,7211.046l-0.404-1.189c-0.092-0.27-0.153-0.514-0.215-0.754h-0.012c-0.061,0.246-0.129,0.497-0.208,0.748l-0.404,1.195
			H7247.615z"/>
	</g>
</g>
</svg>
