<?xml version="1.0" encoding="utf-8"?>
<!-- Generator: Adobe Illustrator 17.0.0, SVG Export Plug-In . SVG Version: 6.00 Build 0)  -->
<!DOCTYPE svg PUBLIC "-//W3C//DTD SVG 1.1//EN" "http://www.w3.org/Graphics/SVG/1.1/DTD/svg11.dtd">
<svg version="1.1" id="Layer_1" xmlns="http://www.w3.org/2000/svg" xmlns:xlink="http://www.w3.org/1999/xlink" x="0px" y="0px"
	 width="20px" height="20px" viewBox="7190 7190 20 20" enable-background="new 7190 7190 20 20" xml:space="preserve">
<path fill="#FFFFFF" d="M7208.747,7194.463c-0.643,0.285-1.334,0.479-2.061,0.564c0.74-0.443,1.311-1.146,1.578-1.986
	c-0.693,0.412-1.463,0.711-2.279,0.873c-0.653-0.699-1.588-1.135-2.621-1.135c-1.981,0-3.59,1.607-3.59,3.59
	c0,0.281,0.033,0.555,0.095,0.818c-2.984-0.148-5.629-1.578-7.4-3.752c-0.309,0.529-0.485,1.148-0.485,1.807
	c0,1.244,0.635,2.342,1.598,2.988c-0.588-0.02-1.143-0.182-1.627-0.451c0,0.016,0,0.031,0,0.047c0,1.738,1.238,3.189,2.881,3.52
	c-0.303,0.082-0.619,0.125-0.946,0.125c-0.23,0-0.455-0.021-0.674-0.064c0.455,1.428,1.78,2.465,3.352,2.494
	c-1.229,0.963-2.774,1.537-4.457,1.537c-0.291,0-0.576-0.018-0.856-0.051c1.59,1.018,3.477,1.613,5.504,1.613
	c6.604,0,10.215-5.471,10.215-10.215c0-0.154-0.004-0.311-0.013-0.465C7207.657,7195.814,7208.268,7195.182,7208.747,7194.463z"/>
</svg>
