<?xml version="1.0" encoding="utf-8"?>
<!-- Generator: Adobe Illustrator 17.0.0, SVG Export Plug-In . SVG Version: 6.00 Build 0)  -->
<!DOCTYPE svg PUBLIC "-//W3C//DTD SVG 1.1//EN" "http://www.w3.org/Graphics/SVG/1.1/DTD/svg11.dtd">
<svg version="1.1" id="Layer_1" xmlns="http://www.w3.org/2000/svg" xmlns:xlink="http://www.w3.org/1999/xlink" x="0px" y="0px"
	 width="100px" height="100px" viewBox="7150 7150 100 100" enable-background="new 7150 7150 100 100" xml:space="preserve">
<g>
	<g>
		<path fill="#FFFFFF" d="M7180.8,7192.392l-1.775-12.835h2.211l0.799,8.499l1.098-8.499h1.902l1.076,8.45l0.836-8.45h2.217
			l-1.795,12.835h-2.219l-1.076-8.4l-1.057,8.4H7180.8z"/>
		<path fill="#FFFFFF" d="M7188.986,7192.392l2.773-12.835h2.297l2.766,12.835h-2.559l-0.527-2.746h-1.676l-0.498,2.746H7188.986z
			 M7192.238,7188.048h1.326l-0.648-4.762L7192.238,7188.048z"/>
		<path fill="#FFFFFF" d="M7197.65,7192.392v-12.835h2.596v11.052h2.551v1.783H7197.65z"/>
		<path fill="#FFFFFF" d="M7203.626,7192.392v-12.835h2.594v11.052h2.553v1.783H7203.626z"/>
		<path fill="#FFFFFF" d="M7179.638,7206.995v-12.836h3.102c1.117,0,1.93,0.313,2.438,0.936c0.51,0.622,0.764,1.523,0.764,2.701
			c0,0.58-0.057,1.084-0.168,1.512s-0.268,0.781-0.467,1.059c-0.199,0.279-0.455,0.502-0.77,0.671s-0.654,0.288-1.02,0.356
			c-0.367,0.068-0.789,0.105-1.27,0.111v5.49H7179.638z M7182.255,7199.671c0.137,0,0.26-0.008,0.367-0.025
			c0.107-0.016,0.199-0.035,0.281-0.057c0.08-0.021,0.152-0.061,0.215-0.117c0.061-0.057,0.111-0.107,0.152-0.15
			c0.039-0.042,0.074-0.112,0.104-0.209c0.027-0.098,0.051-0.178,0.064-0.24c0.014-0.061,0.023-0.16,0.031-0.299
			c0.008-0.138,0.012-0.248,0.012-0.332c0-0.082,0-0.213,0-0.389c0-0.047,0-0.082,0-0.105c0-0.186-0.002-0.326-0.004-0.422
			c-0.004-0.094-0.012-0.215-0.025-0.363c-0.014-0.146-0.037-0.258-0.066-0.332c-0.033-0.072-0.078-0.157-0.137-0.252
			c-0.061-0.096-0.131-0.164-0.219-0.207c-0.084-0.043-0.191-0.082-0.324-0.115c-0.129-0.033-0.281-0.049-0.451-0.049
			L7182.255,7199.671L7182.255,7199.671z"/>
		<path fill="#FFFFFF" d="M7185.519,7206.995l2.775-12.836h2.295l2.768,12.836h-2.563l-0.525-2.746h-1.678l-0.498,2.746H7185.519z
			 M7188.771,7202.651h1.326l-0.648-4.763L7188.771,7202.651z"/>
		<path fill="#FFFFFF" d="M7194.183,7206.995v-12.836h2.594v12.836H7194.183z"/>
		<path fill="#FFFFFF" d="M7198.304,7206.995v-12.842h1.867l2.818,6.717v-6.717h2.152v12.842h-1.797l-2.811-7.123v7.123H7198.304z"
			/>
		<path fill="#FFFFFF" d="M7207.888,7206.995v-10.896h-1.883v-1.939h6.324v1.939h-1.846v10.896H7207.888z"/>
		<path fill="#FFFFFF" d="M7179.197,7217.925l2.631-0.506c0,0.262,0.004,0.492,0.014,0.691s0.035,0.416,0.076,0.652
			c0.039,0.234,0.094,0.428,0.164,0.578c0.068,0.148,0.166,0.275,0.291,0.377c0.125,0.104,0.273,0.154,0.445,0.154
			c0.514,0,0.771-0.328,0.771-0.984c0-0.899-0.508-1.793-1.521-2.682l-0.805-0.684c-0.256-0.215-0.461-0.393-0.613-0.535
			s-0.33-0.335-0.537-0.578c-0.207-0.242-0.369-0.477-0.486-0.701c-0.115-0.227-0.215-0.498-0.297-0.817
			c-0.084-0.318-0.127-0.655-0.127-1.013c0-1.041,0.33-1.863,0.992-2.471c0.66-0.605,1.537-0.908,2.629-0.908
			c0.908,0,1.684,0.322,2.318,0.969c0.637,0.646,0.955,1.427,0.955,2.34l-0.006,0.092c0,0.063,0,0.133,0,0.214l-2.682,0.371
			c0-0.052,0.004-0.134,0.01-0.246c0.01-0.112,0.012-0.202,0.012-0.274c0-0.172-0.012-0.336-0.035-0.492s-0.063-0.313-0.117-0.471
			c-0.055-0.156-0.141-0.281-0.254-0.374s-0.252-0.14-0.414-0.14c-0.285,0-0.498,0.112-0.641,0.335
			c-0.143,0.224-0.213,0.487-0.213,0.792c0,0.267,0.039,0.516,0.123,0.749c0.082,0.233,0.209,0.45,0.379,0.653
			c0.168,0.201,0.324,0.369,0.467,0.502s0.332,0.295,0.57,0.488s0.406,0.334,0.506,0.424c0.365,0.324,0.674,0.627,0.928,0.91
			c0.25,0.282,0.488,0.602,0.713,0.958c0.223,0.356,0.391,0.741,0.502,1.155s0.166,0.861,0.166,1.34c0,0.898-0.32,1.635-0.961,2.207
			c-0.641,0.574-1.422,0.859-2.34,0.859c-0.594,0-1.121-0.109-1.582-0.328s-0.834-0.516-1.115-0.891
			c-0.283-0.375-0.5-0.791-0.652-1.248C7179.308,7218.938,7179.218,7218.447,7179.197,7217.925z"/>
		<path fill="#FFFFFF" d="M7187.148,7221.597v-12.834h2.594v5.262h1.861v-5.262h2.609v12.834h-2.609v-5.725h-1.861v5.725H7187.148z"
			/>
		<path fill="#FFFFFF" d="M7195.574,7217.376v-4.314c0-3.033,1.25-4.549,3.752-4.549c2.504,0,3.756,1.516,3.756,4.549v4.25
			c0,0.514-0.037,0.988-0.113,1.423s-0.207,0.847-0.389,1.237c-0.182,0.39-0.416,0.721-0.699,0.994
			c-0.281,0.273-0.641,0.488-1.072,0.645c-0.434,0.158-0.928,0.236-1.482,0.236c-0.553,0-1.045-0.078-1.477-0.232
			c-0.434-0.154-0.789-0.363-1.07-0.627s-0.512-0.588-0.693-0.969c-0.184-0.383-0.314-0.791-0.395-1.225
			C7195.615,7218.362,7195.574,7217.89,7195.574,7217.376z M7200.486,7217.96v-5.547c0-1.264-0.387-1.896-1.16-1.896
			c-0.234,0-0.43,0.059-0.592,0.175s-0.283,0.275-0.357,0.478c-0.076,0.203-0.129,0.402-0.16,0.6
			c-0.029,0.197-0.047,0.412-0.047,0.645v5.547c0,1.26,0.385,1.891,1.156,1.891
			C7200.099,7219.851,7200.486,7219.22,7200.486,7217.96z"/>
		<path fill="#FFFFFF" d="M7204.445,7221.597v-12.834h3.102c1.117,0,1.93,0.311,2.439,0.934c0.508,0.623,0.762,1.523,0.762,2.703
			c0,0.58-0.055,1.084-0.166,1.512s-0.268,0.78-0.469,1.059c-0.199,0.277-0.457,0.502-0.77,0.67s-0.652,0.287-1.02,0.355
			c-0.365,0.07-0.789,0.107-1.27,0.111v5.49H7204.445z M7207.06,7214.274c0.139,0,0.262-0.009,0.369-0.025
			c0.105-0.016,0.201-0.035,0.281-0.057s0.152-0.061,0.213-0.117c0.063-0.059,0.113-0.107,0.154-0.15s0.076-0.113,0.104-0.211
			c0.029-0.097,0.049-0.177,0.063-0.238c0.018-0.062,0.027-0.162,0.033-0.299c0.008-0.139,0.012-0.249,0.012-0.332
			c0-0.084,0-0.213,0-0.389c0-0.047,0-0.084,0-0.107c0-0.186-0.002-0.326-0.004-0.42c-0.002-0.096-0.01-0.217-0.023-0.363
			c-0.018-0.148-0.039-0.258-0.07-0.332c-0.029-0.074-0.074-0.158-0.135-0.254c-0.059-0.095-0.133-0.164-0.217-0.206
			c-0.086-0.044-0.195-0.081-0.324-0.114c-0.133-0.033-0.283-0.051-0.455-0.051v3.666H7207.06z"/>
	</g>
	<g>
		<path fill="#FFFFFF" d="M7172.58,7227.419v-54.838h54.84v52.243v2.595H7172.58L7172.58,7227.419z M7224.824,7224.824v-2.593
			V7224.824L7224.824,7224.824z M7177.771,7222.231h44.459v-44.461h-44.459V7222.231L7177.771,7222.231z"/>
	</g>
</g>
</svg>
