<?xml version="1.0" encoding="utf-8"?>
<!-- Generator: Adobe Illustrator 17.0.0, SVG Export Plug-In . SVG Version: 6.00 Build 0)  -->
<!DOCTYPE svg PUBLIC "-//W3C//DTD SVG 1.1//EN" "http://www.w3.org/Graphics/SVG/1.1/DTD/svg11.dtd">
<svg version="1.1" id="Layer_1" xmlns="http://www.w3.org/2000/svg" xmlns:xlink="http://www.w3.org/1999/xlink" x="0px" y="0px"
	 width="20px" height="20px" viewBox="0 0 20 20" enable-background="new 0 0 20 20" xml:space="preserve">
<g>
	<path fill="#FFFFFF" d="M15.529,9.597H4.473c-1.758,0-3.184,1.426-3.184,3.184v2.559c0,1.756,1.426,3.182,3.184,3.182h11.057
		c1.758,0,3.182-1.426,3.182-3.182V12.78C18.711,11.022,17.287,9.597,15.529,9.597z M6.795,11.589H5.768v5.108H4.775v-5.108H3.748
		V10.72h3.047V11.589z M9.699,16.696H8.818v-0.483c-0.164,0.178-0.332,0.314-0.508,0.406c-0.178,0.096-0.348,0.141-0.514,0.141
		c-0.203,0-0.355-0.064-0.459-0.197c-0.104-0.131-0.156-0.326-0.156-0.59v-3.688h0.881v3.383c0,0.106,0.022,0.18,0.057,0.225
		c0.037,0.049,0.098,0.072,0.18,0.072c0.064,0,0.146-0.029,0.246-0.092c0.1-0.063,0.191-0.143,0.273-0.238v-3.35h0.881V16.696z
		 M12.896,15.786c0,0.311-0.068,0.551-0.207,0.717c-0.137,0.168-0.338,0.25-0.598,0.25c-0.174,0-0.328-0.031-0.461-0.096
		c-0.137-0.065-0.264-0.164-0.377-0.301v0.34h-0.893V10.72h0.893v1.924c0.117-0.133,0.244-0.236,0.377-0.305
		c0.135-0.07,0.269-0.105,0.406-0.105c0.279,0,0.492,0.094,0.641,0.281c0.147,0.188,0.219,0.463,0.219,0.824V15.786z M15.953,14.599
		h-1.684v0.83c0,0.232,0.025,0.393,0.084,0.482c0.059,0.09,0.16,0.135,0.299,0.135c0.146,0,0.248-0.039,0.307-0.115
		c0.059-0.076,0.088-0.242,0.088-0.502v-0.201h0.906v0.227c0,0.451-0.109,0.791-0.332,1.021c-0.219,0.229-0.549,0.34-0.988,0.34
		c-0.396,0-0.707-0.119-0.934-0.363c-0.225-0.238-0.34-0.572-0.34-0.998v-1.981c0-0.381,0.125-0.695,0.375-0.935
		c0.25-0.24,0.568-0.361,0.963-0.361c0.404,0,0.715,0.111,0.932,0.336c0.217,0.223,0.324,0.541,0.324,0.961V14.599z"/>
	<path fill="#FFFFFF" d="M14.66,12.948c-0.139,0-0.24,0.041-0.301,0.123c-0.063,0.076-0.09,0.209-0.09,0.395v0.445h0.777v-0.445
		c0-0.186-0.031-0.318-0.092-0.395C14.894,12.989,14.795,12.948,14.66,12.948z"/>
	<path fill="#FFFFFF" d="M11.621,12.933c-0.063,0-0.125,0.014-0.186,0.043c-0.063,0.027-0.123,0.076-0.182,0.135v2.748
		c0.07,0.07,0.141,0.127,0.207,0.156c0.07,0.031,0.139,0.047,0.215,0.047c0.107,0,0.186-0.029,0.236-0.092
		c0.051-0.064,0.076-0.164,0.076-0.305v-2.277c0-0.15-0.029-0.262-0.092-0.34C11.832,12.972,11.74,12.933,11.621,12.933z"/>
	<polygon fill="#FFFFFF" points="5.92,8.065 7.037,8.065 7.037,5.333 8.338,1.48 7.201,1.48 6.512,4.112 6.439,4.112 5.715,1.48 
		4.59,1.48 5.92,5.456 	"/>
	<path fill="#FFFFFF" d="M9.85,8.187c0.451,0,0.805-0.117,1.064-0.353c0.256-0.238,0.385-0.563,0.385-0.978V4.347
		c0-0.369-0.133-0.674-0.392-0.908c-0.264-0.236-0.6-0.354-1.012-0.354c-0.449,0-0.809,0.113-1.076,0.334
		c-0.268,0.223-0.4,0.522-0.4,0.899v2.517c0,0.414,0.131,0.74,0.391,0.986C9.068,8.065,9.418,8.187,9.85,8.187z M9.439,4.28
		c0-0.104,0.039-0.189,0.111-0.256c0.078-0.066,0.176-0.098,0.297-0.098c0.131,0,0.238,0.031,0.318,0.098
		c0.08,0.066,0.121,0.152,0.121,0.256v2.648c0,0.129-0.039,0.232-0.119,0.307c-0.08,0.074-0.186,0.109-0.32,0.109
		c-0.133,0-0.233-0.035-0.303-0.107c-0.07-0.074-0.105-0.176-0.105-0.309V4.28z"/>
	<path fill="#FFFFFF" d="M12.797,8.136c0.186,0,0.377-0.053,0.574-0.154c0.199-0.105,0.391-0.256,0.57-0.453v0.537h0.994V3.208
		h-0.994v3.687c-0.092,0.106-0.193,0.193-0.305,0.26c-0.111,0.068-0.205,0.104-0.277,0.104c-0.094,0-0.162-0.025-0.201-0.078
		c-0.041-0.051-0.064-0.135-0.064-0.25V3.208h-0.99v4.059c0,0.291,0.059,0.506,0.174,0.65C12.394,8.062,12.566,8.136,12.797,8.136z"
		/>
</g>
</svg>
